<svg width="196" height="50" viewBox="0 0 196 50" fill="none" xmlns="http://www.w3.org/2000/svg">
<g clip-path="url(#clip0_2_64)">
<path d="M58.6261 13.7374V16.3085H52.116V37.9368H48.9974V16.3085H42.4565V13.7374H58.6261Z" fill="#201D22"/>
<path d="M77.7804 29.6078H62.7739C62.8872 31.4801 63.5202 32.9457 64.6729 33.9992C65.8257 35.0527 67.2255 35.5794 68.8671 35.5794C70.2154 35.5794 71.3373 35.2613 72.243 34.625C73.1436 33.9887 73.7766 33.1386 74.142 32.0747H77.4974C76.993 33.9053 75.9895 35.3917 74.4817 36.5339C72.9738 37.6812 71.1006 38.2549 68.862 38.2549C67.0814 38.2549 65.486 37.8481 64.0811 37.0397C62.6762 36.2314 61.5749 35.0788 60.7772 33.5872C59.9795 32.0955 59.5781 30.364 59.5781 28.3978C59.5781 26.4316 59.9641 24.7053 60.7412 23.2242C61.5183 21.743 62.6093 20.6008 64.0142 19.8029C65.4191 19.0049 67.035 18.6033 68.862 18.6033C70.6889 18.6033 72.2173 18.9945 73.5914 19.782C74.9603 20.5695 76.0152 21.6491 76.7615 23.026C77.5025 24.4028 77.873 25.957 77.873 27.6938C77.873 28.2935 77.837 28.9298 77.7701 29.6026L77.7804 29.6078ZM73.8744 23.9282C73.3495 23.0625 72.6342 22.4001 71.7336 21.9516C70.833 21.4979 69.8346 21.2736 68.7333 21.2736C67.1585 21.2736 65.8154 21.7847 64.7089 22.8017C63.6025 23.8187 62.9695 25.2321 62.81 27.0366H74.6618C74.6618 25.8319 74.3993 24.7992 73.8744 23.9282Z" fill="#201D22"/>
<path d="M83.6883 37.0345C82.2628 36.2261 81.1409 35.0735 80.3329 33.5819C79.5198 32.0903 79.1184 30.3588 79.1184 28.3926C79.1184 26.4264 79.5353 24.7314 80.3689 23.2398C81.2026 21.7482 82.34 20.6008 83.7758 19.8029C85.2167 19.0049 86.8223 18.6033 88.6081 18.6033C90.3938 18.6033 91.9995 19.0049 93.4404 19.8029C94.8814 20.6008 96.0135 21.743 96.8472 23.2242C97.6809 24.7053 98.0978 26.4316 98.0978 28.3978C98.0978 30.364 97.6706 32.0955 96.8112 33.5872C95.9569 35.0788 94.7939 36.2314 93.3323 37.0397C91.8708 37.8481 90.2497 38.2549 88.4691 38.2549C86.6885 38.2549 85.1189 37.8481 83.6883 37.0397V37.0345ZM91.6186 34.672C92.6016 34.14 93.3941 33.342 94.0014 32.2781C94.6086 31.2141 94.9071 29.9155 94.9071 28.3874C94.9071 26.8593 94.6086 25.5659 94.0168 24.4967C93.425 23.4328 92.6479 22.64 91.6855 22.1185C90.7283 21.597 89.6888 21.3362 88.5669 21.3362C87.445 21.3362 86.3798 21.597 85.4328 22.1185C84.4859 22.64 83.7243 23.4328 83.1531 24.4967C82.5818 25.5607 82.2988 26.8593 82.2988 28.3874C82.2988 29.9155 82.5767 31.2454 83.1376 32.3094C83.6986 33.3733 84.4448 34.1661 85.3814 34.6876C86.318 35.2091 87.3473 35.4699 88.464 35.4699C89.5807 35.4699 90.6357 35.2039 91.6135 34.672H91.6186Z" fill="#201D22"/>
<path d="M120.808 13.5652V37.9368H114.952V27.9024H105.838V37.9368H99.9813V13.5652H105.838V23.1146H114.952V13.5652H120.808Z" fill="#201D22"/>
<path d="M126.953 37.0032C125.455 36.1948 124.282 35.037 123.422 33.5298C122.568 32.0277 122.136 30.2649 122.136 28.2518C122.136 26.2387 122.568 24.5071 123.438 22.9895C124.308 21.4718 125.491 20.3088 126.999 19.5004C128.507 18.692 130.195 18.2852 132.068 18.2852C133.941 18.2852 135.629 18.692 137.137 19.5004C138.645 20.3088 139.834 21.4718 140.698 22.9895C141.568 24.5071 142 26.2595 142 28.2518C142 30.2441 141.563 31.9965 140.683 33.5089C139.803 35.0266 138.604 36.1896 137.086 36.998C135.568 37.8064 133.869 38.2132 132.001 38.2132C130.133 38.2132 128.445 37.8064 126.948 36.998L126.953 37.0032ZM134.868 31.8296C135.655 30.9951 136.051 29.806 136.051 28.2518C136.051 26.6976 135.671 25.5085 134.904 24.674C134.137 23.8396 133.195 23.4223 132.078 23.4223C130.962 23.4223 129.989 23.8344 129.233 24.6532C128.481 25.4772 128.1 26.6715 128.1 28.2466C128.1 29.8216 128.471 30.9899 129.212 31.8243C129.953 32.6588 130.884 33.076 132.006 33.076C133.128 33.076 134.08 32.6588 134.868 31.8243V31.8296Z" fill="#201D22"/>
<path d="M173.48 20.5434C174.885 22.0038 175.585 24.0273 175.585 26.6194V37.9368H169.759V27.4173C169.759 26.1656 169.435 25.2008 168.781 24.5176C168.128 23.8344 167.232 23.4954 166.09 23.4954C164.947 23.4954 164.052 23.8396 163.398 24.5176C162.745 25.1956 162.421 26.1656 162.421 27.4173V37.9368H156.595V27.4173C156.595 26.1656 156.271 25.2008 155.617 24.5176C154.964 23.8344 154.068 23.4954 152.926 23.4954C151.783 23.4954 150.888 23.8396 150.234 24.5176C149.581 25.2008 149.257 26.1656 149.257 27.4173V37.9368H143.4V18.5616H149.257V20.992C149.848 20.1836 150.625 19.5421 151.588 19.0675C152.545 18.5929 153.631 18.353 154.84 18.353C156.281 18.353 157.563 18.6659 158.695 19.2918C159.827 19.9176 160.712 20.8094 161.35 21.9673C162.014 20.9033 162.915 20.0323 164.057 19.3648C165.2 18.692 166.445 18.3582 167.793 18.3582C170.171 18.3582 172.06 19.0884 173.465 20.5434H173.48Z" fill="#201D22"/>
<path d="M195.897 29.6756H182.64C182.733 30.8804 183.114 31.7983 183.788 32.4345C184.462 33.0708 185.291 33.389 186.274 33.389C187.735 33.389 188.749 32.7631 189.32 31.5166H195.557C195.238 32.7892 194.662 33.9366 193.828 34.9536C192.995 35.9706 191.95 36.7685 190.694 37.3475C189.439 37.9264 188.034 38.2184 186.479 38.2184C184.606 38.2184 182.939 37.8116 181.477 37.0032C180.016 36.1948 178.873 35.037 178.05 33.5298C177.227 32.0277 176.815 30.2649 176.815 28.2518C176.815 26.2387 177.221 24.4811 178.029 22.9738C178.837 21.4718 179.975 20.314 181.436 19.5004C182.898 18.692 184.575 18.2852 186.474 18.2852C188.373 18.2852 189.969 18.6763 191.41 19.4639C192.851 20.2514 193.972 21.3727 194.786 22.833C195.599 24.2881 196 25.9935 196 27.9389C196 28.4917 195.964 29.0706 195.897 29.6756ZM190.005 26.3743C190.005 25.3573 189.66 24.5489 188.975 23.9439C188.291 23.3441 187.432 23.0416 186.407 23.0416C185.383 23.0416 184.596 23.3337 183.922 23.9074C183.248 24.4863 182.831 25.3103 182.671 26.3743H190.005Z" fill="#201D22"/>
<path d="M0.58667 50H7.20989C9.33015 50 11.3681 49.1447 12.8708 47.6218L34.5313 25.6702V24.4654C34.5313 23.6935 34.2277 22.9477 33.6925 22.4001L30.7694 19.4065L0.58667 50Z" fill="#9F8B86"/>
<path d="M22.1546 0L17.2657 5.57526L1.13217 22.0976C0.406554 22.8382 0 23.8448 0 24.8879V31.5584L22.134 8.51153C24.4498 6.1646 24.4601 2.36257 22.1546 0Z" fill="#9F8B86"/>
<path d="M28.1963 16.7675L24.0124 12.4804L0 36.8155V39.3502C0 40.1012 0.602111 40.7114 1.34317 40.7114H4.56987L28.1963 16.7675Z" fill="#9F8B86"/>
<path d="M24.877 40.7114H32.6426C33.6873 40.7114 34.5313 39.856 34.5313 38.7973V30.9273L24.877 40.7114Z" fill="#9F8B86"/>
</g>
<defs>
<clipPath id="clip0_2_64">
<rect width="196" height="50" fill="white"/>
</clipPath>
</defs>
</svg>
